<svg xmlns="http://www.w3.org/2000/svg" width="1200" height="430" viewBox="0 0 1200 430"><defs><linearGradient id="bg" x1="0" y1="0" x2="1" y2="1"><stop stop-color="#fff"/><stop offset=".55" stop-color="#f4f8ff"/><stop offset="1" stop-color="#f7f2ff"/></linearGradient><linearGradient id="a"><stop stop-color="#2563eb"/><stop offset="1" stop-color="#7c3aed"/></linearGradient><filter id="s"><feDropShadow dx="0" dy="14" stdDeviation="18" flood-opacity=".12"/></filter></defs><rect width="1200" height="430" rx="28" fill="url(#bg)"/><g filter="url(#s)"><rect x="32" y="30" width="1136" height="370" rx="24" fill="#fff" fill-opacity=".9" stroke="#dbe4f0"/></g><circle cx="1050" cy="110" r="150" fill="#dbeafe" opacity=".55"/><circle cx="1080" cy="330" r="120" fill="#ede9fe" opacity=".6"/><g transform="translate(78 88)"><rect width="82" height="82" rx="22" fill="#0f172a"/><path d="M22 25h23c12 0 20 6 20 16s-8 17-20 17H32v17h-10V25Zm10 9v15h12c7 0 11-3 11-8s-4-7-11-7H32Z" fill="white"/><path d="M45 58l15 17H45L35 63l10-5Z" fill="#60a5fa"/></g><text x="190" y="92" font-family="Arial,sans-serif" font-size="13" font-weight="700" letter-spacing="2" fill="#2563eb">PRAJAN.SYS  /  ENGINEERING PORTFOLIO</text><text x="190" y="160" font-family="Arial,sans-serif" font-size="56" font-weight="800" fill="#0f172a">Prajan Sanjay K</text><text x="190" y="198" font-family="Arial,sans-serif" font-size="18" fill="#475569">Cybersecurity Engineer  •  AI/ML Builder  •  Cloud Engineer  •  Full-Stack Developer</text><text x="190" y="229" font-family="Arial,sans-serif" font-size="13" font-weight="600" letter-spacing=".7" fill="#64748b">BUILDING SECURE, INTELLIGENT AND SCALABLE SYSTEMS</text><g font-family="Arial,sans-serif" font-size="12" font-weight="700"><rect x="190" y="255" width="142" height="36" rx="18" fill="#eff6ff" stroke="#bfdbfe"/><text x="261" y="278" text-anchor="middle" fill="#1d4ed8">CYBERSECURITY</text><rect x="344" y="255" width="96" height="36" rx="18" fill="#f5f3ff" stroke="#ddd6fe"/><text x="392" y="278" text-anchor="middle" fill="#6d28d9">AI / ML</text><rect x="452" y="255" width="100" height="36" rx="18" fill="#eff6ff" stroke="#bfdbfe"/><text x="502" y="278" text-anchor="middle" fill="#1d4ed8">CLOUD</text><rect x="564" y="255" width="142" height="36" rx="18" fill="#f5f3ff" stroke="#ddd6fe"/><text x="635" y="278" text-anchor="middle" fill="#6d28d9">FULL STACK</text></g><g transform="translate(850 78)"><rect x="0" y="35" width="250" height="160" rx="24" fill="#fff" stroke="#dbe4f0"/><rect x="72" y="70" width="106" height="66" rx="15" fill="#0f172a"/><rect x="84" y="58" width="82" height="10" rx="5" fill="#2563eb" opacity=".8"/><circle cx="125" cy="103" r="23" fill="none" stroke="url(#a)" stroke-width="5"/><path d="M114 103h22M125 92v22" stroke="white" stroke-width="4" stroke-linecap="round"/><rect x="15" y="137" width="55" height="35" rx="10" fill="#eff6ff"/><text x="42" y="159" text-anchor="middle" font-family="Arial" font-size="10" font-weight="700" fill="#2563eb">AI</text><rect x="180" y="137" width="55" height="35" rx="10" fill="#f5f3ff"/><text x="207" y="159" text-anchor="middle" font-family="Arial" font-size="10" font-weight="700" fill="#7c3aed">SEC</text></g><text x="78" y="365" font-family="monospace" font-size="11" fill="#64748b">CHENNAI · INDIA</text><text x="1122" y="365" text-anchor="end" font-family="monospace" font-size="11" fill="#64748b">SECURE SYSTEMS · INTELLIGENT PRODUCTS</text></svg>